# Blender v2.79 (sub 7) OBJ File: 'satelite.blend'
# www.blender.org
mtllib satelite_getho_good02.mtl
o Cube.001_Cube.004
v 0.992038 -0.934504 -0.048580
v 0.992038 -0.992054 0.021770
v 0.033363 -0.934504 -0.048580
v 0.033363 -0.992054 0.021770
v 0.992038 0.992054 -0.021771
v 0.992038 0.934504 0.048580
v 0.033362 0.992054 -0.021770
v 0.033362 0.934504 0.048580
v -0.034365 -0.934504 -0.048580
v -0.034365 -0.992054 0.021771
v -0.993040 -0.934504 -0.048580
v -0.993040 -0.992054 0.021771
v -0.034365 0.992054 -0.021771
v -0.034365 0.934504 0.048580
v -0.993040 0.992054 -0.021770
v -0.993040 0.934504 0.048580
v -0.000000 -0.390199 -0.912872
v -0.163894 -0.000000 0.000000
v 0.000000 0.390199 0.912872
v 0.163894 0.000000 -0.000000
v -0.000000 0.901472 -0.385326
v 0.000000 -0.901472 0.385326
v -0.000000 0.383455 -0.973649
v 0.122920 -0.292649 -0.684654
v 0.000000 -0.968754 -0.395660
v -0.122920 -0.292649 -0.684654
v -0.122921 0.676104 -0.288995
v -0.122920 -0.676104 0.288995
v -0.122920 0.292649 0.684654
v -0.000000 0.968754 0.395660
v 0.000000 -0.383455 0.973649
v 0.122920 0.292649 0.684654
v 0.122920 0.676104 -0.288995
v 0.122921 -0.676104 0.288995
v 0.091052 0.284041 -0.721222
v 0.091052 -0.717595 -0.293081
v -0.091052 0.284041 -0.721222
v -0.091052 -0.717595 -0.293081
v 0.091052 0.717595 0.293081
v 0.091052 -0.284041 0.721222
v -0.091052 0.717595 0.293081
v -0.091052 -0.284041 0.721222
vt 0.025506 0.453457
vt 0.025506 0.442789
vt 0.568945 0.442789
vt 0.568945 0.453459
vt 0.579613 0.835750
vt 0.568944 0.835750
vt 0.568944 0.649939
vt 0.579613 0.649939
vt 0.568944 0.639270
vt 0.025506 0.649939
vt 0.025506 0.639269
vt 0.014837 0.649939
vt 0.025506 0.835750
vt 0.014837 0.835750
vt 0.023309 0.027844
vt 0.023317 0.017175
vt 0.566755 0.017551
vt 0.566748 0.028221
vt 0.577152 0.410519
vt 0.566483 0.410512
vt 0.566612 0.224701
vt 0.577280 0.224708
vt 0.566619 0.214032
vt 0.023173 0.224325
vt 0.023180 0.213655
vt 0.012504 0.224318
vt 0.023045 0.410137
vt 0.012376 0.410129
vt 0.799985 0.769686
vt 0.814461 0.801724
vt 0.780441 0.821452
vt 0.767947 0.784163
vt 0.748219 0.750142
vt 0.785509 0.737649
vt 0.819529 0.717920
vt 0.832022 0.755210
vt 0.851751 0.789230
vt 0.977414 0.689514
vt 0.977414 0.836674
vt 0.866973 0.592257
vt 0.982021 0.267207
vt 0.982020 0.425332
vt 0.846995 0.374353
vt 0.825797 0.337798
vt 0.812372 0.297730
vt 0.863351 0.162705
vt 0.791372 0.353353
vt 0.775817 0.318929
vt 0.806927 0.387777
vt 0.770372 0.408976
vt 0.756948 0.368908
vt 0.735749 0.332353
vt 0.600724 0.439498
vt 0.600724 0.281374
vt 0.719393 0.544001
vt 0.622555 0.849859
vt 0.622556 0.702698
vt 0.732997 0.947116
vt 0.880157 0.947116
vt 0.705227 0.162705
vt 0.877518 0.544001
vt 0.719812 0.592257
vn 0.0000 -0.7740 -0.6332
vn -1.0000 -0.0000 0.0000
vn -0.0000 0.7740 0.6332
vn 1.0000 0.0000 0.0000
vn -0.0000 0.0139 -0.9999
vn 0.0000 -0.0139 0.9999
vn 0.9135 -0.0078 -0.4067
vn 0.9135 -0.2886 -0.2867
vn -0.9135 -0.2886 -0.2867
vn -0.9135 -0.0078 -0.4067
vn -0.9956 0.0354 -0.0866
vn -0.9956 -0.0871 -0.0343
vn -0.9956 -0.0354 0.0866
vn -0.9956 0.0871 0.0343
vn -0.9135 0.2886 0.2867
vn -0.9135 0.0078 0.4067
vn 0.9135 0.0078 0.4067
vn 0.9135 0.2886 0.2867
vn 0.9956 0.0871 0.0343
vn 0.9956 -0.0354 0.0866
vn 0.9956 -0.0871 -0.0343
vn 0.9956 0.0354 -0.0866
vn -0.9121 0.2914 -0.2883
vn -0.9121 0.4097 -0.0114
vn 0.9121 0.4097 -0.0114
vn 0.9121 0.2914 -0.2883
vn -0.9121 -0.2914 0.2883
vn -0.9121 -0.4097 0.0114
vn 0.9121 -0.4097 0.0114
vn 0.9121 -0.2914 0.2883
usemtl satelite
s off
f 1/1/1 2/2/1 4/3/1 3/4/1
f 3/5/2 4/6/2 8/7/2 7/8/2
f 7/9/3 8/7/3 6/10/3 5/11/3
f 5/12/4 6/10/4 2/13/4 1/14/4
f 3/4/5 7/9/5 5/11/5 1/1/5
f 8/7/6 4/6/6 2/13/6 6/10/6
f 9/15/1 10/16/1 12/17/1 11/18/1
f 11/19/2 12/20/2 16/21/2 15/22/2
f 15/23/3 16/21/3 14/24/3 13/25/3
f 13/26/4 14/24/4 10/27/4 9/28/4
f 11/18/5 15/23/5 13/25/5 9/15/5
f 16/21/6 12/20/6 10/27/6 14/24/6
f 17/29/7 23/30/7 35/31/7 24/32/7
f 17/29/8 24/32/8 36/33/8 25/34/8
f 17/29/9 25/34/9 38/35/9 26/36/9
f 17/29/10 26/36/10 37/37/10 23/30/10
f 18/38/11 27/39/11 37/37/11 26/36/11
f 18/38/12 26/36/12 38/35/12 28/40/12
f 18/41/13 28/42/13 42/43/13 29/44/13
f 18/41/14 29/44/14 41/45/14 27/46/14
f 19/47/15 30/48/15 41/45/15 29/44/15
f 19/47/16 29/44/16 42/43/16 31/49/16
f 19/47/17 31/49/17 40/50/17 32/51/17
f 19/47/18 32/51/18 39/52/18 30/48/18
f 20/53/19 33/54/19 39/52/19 32/51/19
f 20/53/20 32/51/20 40/50/20 34/55/20
f 20/56/21 34/57/21 36/33/21 24/32/21
f 20/56/22 24/32/22 35/31/22 33/58/22
f 21/59/23 23/30/23 37/37/23 27/39/23
f 21/60/24 27/46/24 41/45/24 30/48/24
f 21/60/25 30/48/25 39/52/25 33/54/25
f 21/59/26 33/58/26 35/31/26 23/30/26
f 22/61/27 31/49/27 42/43/27 28/42/27
f 22/62/28 28/40/28 38/35/28 25/34/28
f 22/62/29 25/34/29 36/33/29 34/57/29
f 22/61/30 34/55/30 40/50/30 31/49/30
